<svg width="163" height="62" viewBox="0 0 163 62" fill="none" xmlns="http://www.w3.org/2000/svg">
<path d="M51.0685 39.8177C49.3545 39.8177 47.8205 39.4395 46.4578 38.6746C45.1038 37.9097 44.0326 36.8612 43.2527 35.5205C42.4728 34.1797 42.0786 32.6585 42.0786 30.9654C42.0786 29.2723 42.4728 27.7253 43.2527 26.4104C44.0326 25.0955 45.0952 24.0555 46.4407 23.2906C47.7862 22.5257 49.3288 22.1476 51.0685 22.1476C52.8081 22.1476 54.3165 22.5257 55.6791 23.2734C57.0331 24.0212 58.0958 25.0611 58.8671 26.3932C59.6384 27.7253 60.024 29.2466 60.024 30.9654C60.024 32.6843 59.6384 34.2055 58.8671 35.5377C58.0958 36.8698 57.0331 37.9097 55.6791 38.6746C54.325 39.4395 52.7824 39.8177 51.0685 39.8177ZM51.0685 37.0761C52.174 37.0761 53.1681 36.8268 54.0508 36.3283C54.9335 35.8299 55.6191 35.1165 56.1161 34.1883C56.6132 33.2601 56.8617 32.1944 56.8617 30.974C56.8617 29.7536 56.6132 28.6621 56.1161 27.7597C55.6191 26.8573 54.9249 26.1526 54.0508 25.6541C53.1681 25.1556 52.174 24.9064 51.0685 24.9064C49.9629 24.9064 48.9774 25.1556 48.1033 25.6541C47.2377 26.1526 46.5435 26.8573 46.0208 27.7597C45.498 28.6621 45.2409 29.7364 45.2409 30.974C45.2409 32.2116 45.498 33.2687 46.0208 34.1883C46.5435 35.1165 47.2377 35.8299 48.1033 36.3283C48.9688 36.8268 49.9629 37.0761 51.0685 37.0761Z" fill="#FFFFFF"/>
<path d="M65.3972 39.62V22.3109H68.3967V27.012L68.1053 25.8346C68.5853 24.64 69.3823 23.7204 70.5135 23.093C71.6447 22.4656 73.033 22.1476 74.6785 22.1476V25.1814C74.5499 25.1642 74.4214 25.147 74.3014 25.147H73.9586C72.2875 25.147 70.9591 25.6455 69.9821 26.651C69.0052 27.6566 68.5167 29.1005 68.5167 30.9912V39.6114H65.3887L65.3972 39.62Z" fill="#FFFFFF"/>
<path d="M86.5651 38.9067C84.894 38.9067 83.4028 38.5544 82.0831 37.8496C80.7633 37.1449 79.7263 36.1565 78.955 34.8932C78.1837 33.6298 77.7981 32.1687 77.7981 30.5186C77.7981 28.8685 78.1837 27.3816 78.955 26.1269C79.7263 24.8721 80.7719 23.9009 82.0831 23.2048C83.3943 22.5086 84.8854 22.1562 86.5651 22.1562C88.0391 22.1562 89.3846 22.4571 90.6016 23.0501C91.8185 23.6517 92.7869 24.5713 93.5153 25.8089C94.2438 27.0465 94.6037 28.6192 94.6037 30.51C94.6037 32.4008 94.2438 33.9392 93.5153 35.1768C92.7869 36.4144 91.8185 37.3511 90.6016 37.9699C89.3846 38.5887 88.0391 38.8981 86.5651 38.8981V38.9067ZM86.9593 46.1604C85.3739 46.1604 83.8399 45.937 82.3487 45.49C80.8576 45.0431 79.6492 44.4072 78.7151 43.5821L80.2148 41.1671C81.0204 41.8632 82.0059 42.4132 83.18 42.8172C84.3541 43.2211 85.5796 43.4188 86.8565 43.4188C88.8961 43.4188 90.3959 42.9375 91.3471 41.9835C92.2984 41.0296 92.7783 39.5685 92.7783 37.609V33.9478L93.104 30.5186L92.9411 27.0551V22.3195H95.9063V37.2738C95.9063 40.3248 95.1436 42.568 93.6267 44.0032C92.1099 45.4385 89.8817 46.1604 86.9508 46.1604H86.9593ZM86.9251 36.1651C88.0734 36.1651 89.0932 35.9245 89.9845 35.4432C90.8758 34.9619 91.5785 34.3001 92.0841 33.4493C92.5983 32.5984 92.8469 31.6187 92.8469 30.51C92.8469 29.4013 92.5898 28.4216 92.0841 27.5707C91.5785 26.7199 90.8758 26.0667 89.9845 25.594C89.0932 25.1299 88.0734 24.8893 86.9251 24.8893C85.7767 24.8893 84.7483 25.1213 83.8485 25.594C82.9486 26.0581 82.2373 26.7199 81.7317 27.5707C81.2261 28.4216 80.969 29.4013 80.969 30.51C80.969 31.6187 81.2261 32.5984 81.7317 33.4493C82.2459 34.3001 82.9486 34.9619 83.8485 35.4432C84.7483 35.9245 85.7767 36.1651 86.9251 36.1651Z" fill="#FFFFFF"/>
<path d="M107.964 39.8177C106.679 39.8177 105.556 39.6029 104.596 39.1645C103.628 38.7262 102.882 38.1246 102.368 37.3511C101.845 36.5776 101.588 35.701 101.588 34.7212C101.588 33.7415 101.811 32.9336 102.257 32.1773C102.702 31.4124 103.431 30.8022 104.442 30.3467C105.453 29.8912 106.816 29.6591 108.53 29.6591H113.997V31.9109H108.658C107.099 31.9109 106.044 32.1687 105.496 32.693C104.956 33.2172 104.682 33.8446 104.682 34.5837C104.682 35.4346 105.016 36.1135 105.693 36.6292C106.362 37.1449 107.296 37.3941 108.495 37.3941C109.695 37.3941 110.698 37.1363 111.572 36.612C112.455 36.0877 113.089 35.3314 113.475 34.3259L114.092 36.4831C113.68 37.5058 112.952 38.3137 111.906 38.9153C110.861 39.5169 109.55 39.8091 107.964 39.8091V39.8177ZM113.629 39.62V35.9588L113.466 35.2713V29.0317C113.466 27.7082 113.08 26.6769 112.309 25.9464C111.538 25.2158 110.381 24.8549 108.838 24.8549C107.818 24.8549 106.816 25.0268 105.839 25.3619C104.862 25.6971 104.039 26.1526 103.362 26.7199L102.059 24.365C102.951 23.6431 104.022 23.093 105.265 22.7149C106.516 22.3367 107.818 22.139 109.19 22.139C111.555 22.139 113.38 22.7149 114.657 23.8665C115.934 25.0182 116.577 26.7886 116.577 29.1607V39.6115H113.612L113.629 39.62Z" fill="#FFFFFF"/>
<path d="M132.646 22.1476C134.06 22.1476 135.302 22.4226 136.373 22.9641C137.445 23.5055 138.293 24.3392 138.893 25.4478C139.493 26.5565 139.801 27.966 139.801 29.6591V39.62H136.673V30.0201C136.673 28.3441 136.271 27.0808 135.456 26.2299C134.642 25.3791 133.494 24.958 132.02 24.958C130.914 24.958 129.946 25.1728 129.123 25.6111C128.301 26.0494 127.666 26.6854 127.221 27.5363C126.775 28.3871 126.552 29.4442 126.552 30.7076V39.62H123.424V22.3109H126.424V26.9776L125.935 25.74C126.501 24.6056 127.366 23.729 128.541 23.093C129.715 22.4656 131.077 22.1476 132.646 22.1476Z" fill="#FFFFFF"/>
<path d="M154.045 39.8177C152.331 39.8177 150.797 39.4395 149.434 38.6746C148.08 37.9097 147.009 36.8612 146.229 35.5205C145.449 34.1797 145.055 32.6585 145.055 30.9654C145.055 29.2723 145.449 27.7253 146.229 26.4104C147.009 25.0955 148.071 24.0555 149.417 23.2906C150.762 22.5257 152.305 22.1476 154.045 22.1476C155.784 22.1476 157.293 22.5257 158.655 23.2734C160.018 24.0212 161.072 25.0611 161.843 26.3932C162.614 27.7253 163 29.2466 163 30.9654C163 32.6843 162.614 34.2055 161.843 35.5377C161.072 36.8698 160.009 37.9097 158.655 38.6746C157.301 39.4395 155.759 39.8177 154.045 39.8177ZM154.045 37.0761C155.15 37.0761 156.144 36.8268 157.027 36.3283C157.91 35.8299 158.595 35.1165 159.092 34.1883C159.589 33.2601 159.838 32.1944 159.838 30.974C159.838 29.7536 159.589 28.6621 159.092 27.7597C158.595 26.8573 157.901 26.1526 157.027 25.6541C156.144 25.1556 155.159 24.9064 154.045 24.9064C152.93 24.9064 151.945 25.1556 151.079 25.6541C150.214 26.1526 149.52 26.8573 148.997 27.7597C148.474 28.6621 148.217 29.7364 148.217 30.974C148.217 32.2116 148.474 33.2687 148.997 34.1883C149.52 35.1165 150.214 35.8299 151.079 36.3283C151.945 36.8268 152.939 37.0761 154.045 37.0761Z" fill="#FFFFFF"/>
<path d="M5.21076 12.0322C5.42501 12.4619 5.86208 12.7369 6.34199 12.7369C6.82191 12.7369 7.25897 12.4619 7.47322 12.0322L12.5638 1.8392C12.7609 1.44386 12.7351 0.979762 12.5038 0.601608C12.2724 0.223455 11.861 0 11.424 0H1.26861C0.83154 0 0.420183 0.232049 0.188796 0.601608C-0.0425919 0.979762 -0.0597317 1.44386 0.128806 1.8392L5.21076 12.0322ZM9.37574 2.54394L6.35056 8.62018L3.32538 2.54394H9.37574ZM6.35056 37.3685C8.03884 37.3685 9.64998 36.6981 10.8412 35.5035C12.0324 34.3088 12.7009 32.6845 12.7009 31C12.7009 29.3155 12.0324 27.6912 10.8412 26.4965C9.64998 25.3019 8.03027 24.6315 6.35056 24.6315C4.67086 24.6315 3.05115 25.3019 1.85993 26.4965C0.668711 27.6912 0.00025786 29.3155 0.00025786 31C0.00025786 32.6845 0.668711 34.3088 1.85993 35.5035C3.05115 36.6981 4.66229 37.3685 6.35056 37.3685ZM6.35056 27.1755C7.36181 27.1755 8.33021 27.5794 9.05009 28.2928C9.76139 29.0061 10.1642 29.9859 10.1642 31C10.1642 32.0141 9.76139 32.9853 9.05009 33.7072C8.33878 34.4206 7.36181 34.8245 6.35056 34.8245C5.33931 34.8245 4.37091 34.4206 3.65104 33.7072C2.93974 32.9939 2.53695 32.0141 2.53695 31C2.53695 29.9859 2.93974 29.0147 3.65104 28.2928C4.36234 27.5794 5.33931 27.1755 6.35056 27.1755ZM1.26861 62H11.4325C12.1353 62 12.7009 61.4328 12.7009 60.728V50.5351C12.7009 49.8303 12.1353 49.2631 11.4325 49.2631H1.26861C0.565872 49.2631 0.00025786 49.8303 0.00025786 50.5351V60.728C0.00025786 61.4328 0.565872 62 1.26861 62ZM2.53695 51.807H10.1642V59.4561H2.53695V51.807ZM22.8648 54.3596V32.272H15.6661C14.9633 32.272 14.3977 31.7047 14.3977 31C14.3977 30.2953 14.9633 29.728 15.6661 29.728H22.8648V7.64042H15.6661C14.9633 7.64042 14.3977 7.07319 14.3977 6.36845C14.3977 5.66371 14.9633 5.09648 15.6661 5.09648H24.1331C24.8359 5.09648 25.4015 5.66371 25.4015 6.36845V29.728H32.6002C33.3029 29.728 33.8686 30.2953 33.8686 31C33.8686 31.7047 33.3029 32.272 32.6002 32.272H25.4015V55.6316C25.4015 56.3363 24.8359 56.9035 24.1331 56.9035H15.6661C14.9633 56.9035 14.3977 56.3363 14.3977 55.6316C14.3977 54.9268 14.9633 54.3596 15.6661 54.3596H22.8648Z" fill="#FFFFFF"/>
</svg>
